<svg width="253" height="253" viewBox="0 0 253 253" fill="none" xmlns="http://www.w3.org/2000/svg">
<mask id="mask0_903_19" style="mask-type:luminance" maskUnits="userSpaceOnUse" x="0" y="0" width="253" height="253">
<path d="M221.375 0H31.625C14.159 0 0 14.159 0 31.625V221.375C0 238.841 14.159 253 31.625 253H221.375C238.841 253 253 238.841 253 221.375V31.625C253 14.159 238.841 0 221.375 0Z" fill="white"/>
</mask>
<g mask="url(#mask0_903_19)">
<mask id="mask1_903_19" style="mask-type:alpha" maskUnits="userSpaceOnUse" x="0" y="12" width="253" height="254">
<path d="M253 12.6499H0V265.65H253V12.6499Z" fill="white"/>
</mask>
<g mask="url(#mask1_903_19)">
<path fill-rule="evenodd" clip-rule="evenodd" d="M185.828 35.8174C200.106 29.6321 213.693 25.3896 226.872 25.3643L225.33 29.4973C213.511 29.8337 201.072 33.7173 187.57 39.5669C177.69 43.8472 167.387 49.1101 156.426 54.7089L156.416 54.7141L156.281 54.7828C151.581 57.1835 146.758 59.6471 141.798 62.1194C109.533 78.2009 71.905 94.4345 26.0885 95.1951L24.1958 91.1107L22.7382 91.7409V91.1131C69.0166 91.1131 106.937 74.8708 139.846 58.4677C144.756 56.0201 149.569 53.5622 154.285 51.1532C165.311 45.5208 175.814 40.1561 185.828 35.8174ZM78.9508 209.266C104.624 204.734 127.663 196.484 148.184 188.356C153.659 186.187 158.873 184.063 163.884 182.021L163.895 182.016C165.707 181.278 167.492 180.55 169.254 179.835L180.845 148.76C171.914 151.983 162.554 155.797 153.074 159.66C148.232 161.633 143.359 163.618 138.495 165.544C116.699 174.177 93.5087 182.294 68.1759 186.015L78.9508 209.266ZM63.515 175.957C95.0734 171.955 122.813 161.68 147.117 151.571C152.461 149.35 157.572 147.164 162.499 145.058L162.607 145.012L162.643 144.997C170.803 141.508 178.461 138.234 185.844 135.358L195.235 110.185C192.367 111.065 189.501 112.022 186.64 113.036C176.067 116.785 164.796 121.603 153.27 126.53L153.088 126.607C148.325 128.643 143.519 130.697 138.702 132.701C113.152 143.327 85.4728 153.349 54.4014 156.291L63.515 175.957ZM51.5007 150.031C87.655 146.82 118.868 134.823 145.939 123.02C151.229 120.713 156.307 118.439 161.215 116.24C172.369 111.246 182.647 106.643 192.548 102.941C194.662 102.151 196.732 101.413 198.76 100.731L205.937 81.4896C199.452 83.0456 192.935 85.1708 186.404 87.6122C175.97 91.5124 164.893 96.472 153.49 101.578L153.474 101.585L153.43 101.605C148.648 103.747 143.808 105.914 138.935 108.038C110.772 120.318 79.7574 132.001 44.1155 134.095L51.5007 150.031ZM39.356 123.824C80.2761 121.864 114.903 108.069 144.667 94.482C149.83 92.1251 154.807 89.7935 159.633 87.5332L159.727 87.4889L159.739 87.4833C170.829 82.2882 181.117 77.4689 191.013 73.5767C198.196 70.7513 204.936 68.5171 211.323 67.0515L216.354 53.5621C206.449 54.9768 196.391 58.1496 186.198 62.1592C175.905 66.2072 165.023 71.3046 153.747 76.5863L153.723 76.5975C148.951 78.8328 144.109 81.1006 139.211 83.3365C108.554 97.3314 74.1977 110.795 33.7311 111.687L39.356 123.824ZM30.8452 105.46C75.034 104.432 111.797 89.2093 143.283 74.1814C148.387 71.7456 153.324 69.3289 158.124 66.9798C169.156 61.58 179.458 56.538 189.351 52.4508C200.372 47.8975 210.518 44.6974 220.071 43.5989L223.25 35.0754C211.158 35.7723 198.771 39.62 186.003 44.8945C175.845 49.0911 165.148 54.3265 153.991 59.787L153.901 59.8308C149.186 62.1383 144.385 64.4879 139.513 66.8134C107.413 82.134 70.9057 97.0792 27.0611 97.2934L30.8452 105.46Z" fill="url(#paint0_linear_903_19)"/>
</g>
</g>
<defs>
<linearGradient id="paint0_linear_903_19" x1="126.498" y1="25.2998" x2="126.498" y2="253" gradientUnits="userSpaceOnUse">
<stop stop-color="#3B82F6"/>
<stop offset="0.394231" stop-color="#2A59B8"/>
<stop offset="1" stop-color="#1E3A8A"/>
</linearGradient>
</defs>
</svg>
